<?xml version="1.0" encoding="UTF-8"?>
<svg version="1.1" xmlns="http://www.w3.org/2000/svg" width="200" height="200">
<path d="M0 0 C0.70737305 -0.00040283 1.41474609 -0.00080566 2.14355469 -0.0012207 C26.3870754 0.07820339 49.09217432 8.29646939 67.5625 24.4375 C67.5625 25.0975 67.5625 25.7575 67.5625 26.4375 C68.14 26.685 68.7175 26.9325 69.3125 27.1875 C71.89189979 28.62049988 73.62371592 30.22174676 75.5625 32.4375 C75.5625 33.0975 75.5625 33.7575 75.5625 34.4375 C76.2225 34.4375 76.8825 34.4375 77.5625 34.4375 C96.64049148 58.51436818 103.19948411 85.359113 100.328125 115.93310547 C99.74087417 120.19936683 98.76712256 124.3073655 97.5625 128.4375 C97.29566406 129.3553125 97.02882812 130.273125 96.75390625 131.21875 C92.3840615 144.42539192 85.83283056 156.09358337 76.5625 166.4375 C76.046875 167.10652344 75.53125 167.77554688 75 168.46484375 C61.34755355 185.85038102 38.56485039 196.00327277 17.34765625 200.05078125 C-12.67145231 203.117749 -38.92667382 196.97103855 -63.48828125 179.13671875 C-64.13152344 178.57597656 -64.77476563 178.01523438 -65.4375 177.4375 C-65.4375 176.7775 -65.4375 176.1175 -65.4375 175.4375 C-66.30375 175.06625 -66.30375 175.06625 -67.1875 174.6875 C-69.76689979 173.25450012 -71.49871592 171.65325324 -73.4375 169.4375 C-73.4375 168.7775 -73.4375 168.1175 -73.4375 167.4375 C-74.0975 167.4375 -74.7575 167.4375 -75.4375 167.4375 C-77.08790111 165.47419756 -78.58397487 163.52610427 -80.0625 161.4375 C-80.72693115 160.49994873 -80.72693115 160.49994873 -81.40478516 159.54345703 C-88.57619169 149.14530353 -94.15960552 137.65658191 -97.4375 125.4375 C-97.61265137 124.84316162 -97.78780273 124.24882324 -97.96826172 123.63647461 C-99.94200455 116.15790843 -99.83339054 108.55431826 -99.8125 100.875 C-99.81228851 100.16162476 -99.81207703 99.44824951 -99.81185913 98.71325684 C-99.78044172 88.11948365 -99.19945787 78.44896442 -95.4375 68.4375 C-95.05207031 67.37402344 -94.66664062 66.31054688 -94.26953125 65.21484375 C-93.10092154 62.22335418 -91.82135896 59.33508151 -90.4375 56.4375 C-90.00824219 55.53773437 -89.57898438 54.63796875 -89.13671875 53.7109375 C-76.58477148 29.17276452 -55.12680257 12.6631843 -29.5 3.5625 C-19.66626553 0.73662715 -10.22604224 -0.00596619 0 0 Z " fill="#FC8B00" transform="translate(99.4375,-0.4375)"/>
<path d="M0 0 C12.28271509 9.20445439 19.94497247 21.53993088 22.9375 36.6875 C24.46287517 52.33037806 20.55499857 66.44327778 11.125 79.125 C1.60943824 90.48228339 -10.6182816 97.10193932 -25.35961914 98.54370117 C-26.99258142 98.67762849 -28.62740895 98.79099294 -30.26342773 98.88012695 C-36.57784673 99.30232934 -41.9714314 100.6387411 -46.59643555 105.20043945 C-50.03684455 109.56190284 -51.20084655 114.05319119 -52.1875 119.4375 C-53.63456865 127.06394289 -53.63456865 127.06394289 -55.4296875 129.6796875 C-57.44056973 130.92085404 -58.70704909 131.08926649 -61.0625 131.0625 C-61.743125 131.07023438 -62.42375 131.07796875 -63.125 131.0859375 C-65.66368555 130.5638691 -66.45228465 129.69788389 -68.0625 127.6875 C-69.49443399 120.1503367 -67.11933392 112.12502312 -65.4375 104.8125 C-64.88514093 102.32688418 -64.33306586 99.84120523 -63.78125 97.35546875 C-63.35392578 95.45547119 -63.35392578 95.45547119 -62.91796875 93.51708984 C-61.81497545 88.57943203 -60.7530666 83.63353219 -59.69750977 78.68554688 C-59.19373169 76.32541215 -58.6864473 73.96602295 -58.17553711 71.60742188 C-57.04693341 66.38739767 -55.94844307 61.16889294 -54.97265625 55.91796875 C-54.80588379 55.04664307 -54.63911133 54.17531738 -54.46728516 53.27758789 C-54.16877295 51.70283463 -53.88444047 50.12528332 -53.61865234 48.54467773 C-52.59413755 43.21831573 -50.90257617 40.36637357 -47.0625 36.6875 C-43.48896785 36.62588738 -41.25389418 37.0341548 -38.125 38.75 C-34.86502631 44.6946579 -37.87196922 53.16456405 -39.375 59.3125 C-39.83401438 61.25504753 -40.29234719 63.19775624 -40.75 65.140625 C-40.97429687 66.08228516 -41.19859375 67.02394531 -41.4296875 67.99414062 C-42.73236502 73.53856132 -43.89258961 79.11378056 -45.0625 84.6875 C-24.42161673 83.45513547 -24.42161673 83.45513547 -6.5859375 73.859375 C-5.0625 72.6875 -5.0625 72.6875 -3.0625 72.6875 C-2.78277344 72.10097656 -2.50304687 71.51445313 -2.21484375 70.91015625 C-1.14404419 68.84478354 0.05169666 67.03368986 1.375 65.125 C6.72701818 56.54276967 8.16459122 46.64719188 6.9375 36.6875 C4.2724842 26.33642415 -1.85421721 18.74996057 -10.1875 12.25 C-19.88964096 6.9770973 -29.95922038 4.93513788 -40.8984375 7.30078125 C-50.76277087 10.50880944 -59.60312636 16.38491019 -64.9140625 25.42578125 C-69.91663041 35.27777724 -70.47757881 45.89395546 -68.0625 56.6875 C-67.6875 60.25 -67.6875 60.25 -68.0625 63.6875 C-70.48109563 66.38250656 -72.07013965 67.49386871 -75.625 68.1875 C-79.08402096 67.47795724 -79.99356822 66.58400449 -82.0625 63.6875 C-86.76882973 54.29495305 -86.76385938 40.78682127 -84.18359375 30.734375 C-78.52110159 13.76558662 -68.65469742 3.00694793 -53.0625 -5.3125 C-36.07021778 -13.55468037 -15.3049481 -10.45741807 0 0 Z " fill="#FFFCFA" transform="translate(131.0625,37.3125)"/>
<path d="M0 0 C2.69990662 1.79993774 4.5418865 3.083773 6 6 C6.43023798 9.87214182 6.31669086 11.52496371 4.125 14.8125 C1.42055063 17.59649199 0.57733296 17.93464155 -3.3125 18.375 C-7 18 -7 18 -9.9375 15.9375 C-12.53327109 12.2404927 -12.71253588 10.43355658 -12 6 C-8.59923278 0.78549026 -6.21541624 -0.60935453 0 0 Z " fill="#FFFBF8" transform="translate(105,152)"/>
</svg>
